<svg width="41" height="32" viewBox="0 0 41 32" fill="none" xmlns="http://www.w3.org/2000/svg">
<path d="M0 3.33085H10.7063L17.2491 14.8699L24.8625 0.475838H22.8402L23.197 0H35.4498L35.0929 0.475838H30.4535L20.1041 19.8662L20.9368 21.1747L30.5725 3.33085H40.684V4.28253H36.7584V26.29H40.684V27.3606H26.7658V26.29H30.5725V5.71004L18.9145 27.5985H17.9628L4.99628 5.11524V26.29H9.0409V27.3606H0V26.29H3.80669V4.28253H0V3.33085Z" fill="black"/>
<path d="M14.4425 22.1265L17.1786 27.1227L15.0373 31.2863H20.9853C20.9853 31.2863 25.8626 31.2863 28.8366 28.5503H29.5503L27.1711 32.0001H4.56891V31.5242H9.56519L14.4425 22.1265Z" fill="black"/>
</svg>
