<svg width="35" height="28" viewBox="0 0 35 28" fill="none" xmlns="http://www.w3.org/2000/svg">
<path d="M0.600098 3.10005H9.6001L15.1001 12.8L21.5001 0.70005H19.8001L20.1001 0.300049H30.4001L30.1001 0.70005H26.2001L17.5001 17L18.2001 18.1L26.3001 3.10005H34.8001V3.90005H31.5001V22.4001H34.8001V23.3001H23.1001V22.4001H26.3001V5.10005L16.5001 23.5H15.7001L4.8001 4.60005V22.4001H8.2001V23.3001H0.600098V22.4001H3.8001V3.90005H0.600098V3.10005Z" fill="black"/>
<path d="M11.9002 18.9001L14.2002 23.1001L12.4002 26.6001H17.4002C17.4002 26.6001 21.5002 26.6001 24.0002 24.3001H24.6002L22.6002 27.2001H3.60022V26.8001H7.80022L11.9002 18.9001Z" fill="black"/>
</svg>
