<svg width="251" height="56" viewBox="0 0 251 56" fill="none" xmlns="http://www.w3.org/2000/svg">
<path d="M1.36615 55.8484H7.3248V54.9288H2.36136V47.0301H1.36615V55.8484Z" fill="black"/>
<path d="M15.2663 46.9671H14.3341L10.3155 55.8484H11.3359L12.3815 53.5178H17.1811L18.2141 55.8484H19.2849L15.2663 46.9671ZM16.7906 52.6234H12.772L14.7876 48.1261L16.7906 52.6234Z" fill="black"/>
<path d="M36.0569 48.7056V55.8484H37.0521V47.0301H36.0443L32.8319 51.8423L29.6195 47.0301H28.6117V55.8484H29.5818V48.7182L32.7941 53.4296H32.8445L36.0569 48.7056Z" fill="black"/>
<path d="M45.649 46.9671H44.7168L40.6982 55.8484H41.7186L42.7642 53.5178H47.5638L48.5968 55.8484H49.6676L45.649 46.9671ZM47.1733 52.6234H43.1547L45.1703 48.1261L47.1733 52.6234Z" fill="black"/>
<path d="M53.4003 47.0301V55.8484H54.3955V47.0301H53.4003Z" fill="black"/>
<path d="M59.6521 49.2347C59.6521 49.0331 59.6941 48.8441 59.7781 48.6678C59.8705 48.4914 59.9965 48.3402 60.1561 48.2142C60.324 48.0883 60.5214 47.9875 60.7481 47.9119C60.9833 47.8363 61.2436 47.7985 61.5292 47.7985C61.9827 47.7985 62.4152 47.8741 62.8267 48.0253C63.2467 48.1765 63.6624 48.42 64.0739 48.7559L64.6534 47.9875C64.1999 47.6264 63.7296 47.3576 63.2425 47.1812C62.7637 46.9965 62.2011 46.9041 61.5544 46.9041C61.1345 46.9041 60.7481 46.9671 60.3954 47.0931C60.0427 47.2106 59.7361 47.3786 59.4758 47.597C59.2154 47.8069 59.0139 48.0589 58.8711 48.3528C58.7283 48.6468 58.6569 48.9701 58.6569 49.3228C58.6569 49.6924 58.7157 50.0115 58.8333 50.2802C58.9509 50.549 59.1315 50.7842 59.375 50.9857C59.6186 51.1873 59.9251 51.3594 60.2946 51.5022C60.6726 51.645 61.1135 51.771 61.6174 51.8801C62.0793 51.9809 62.4572 52.0859 62.7511 52.1951C63.0535 52.3043 63.2886 52.426 63.4566 52.5604C63.6246 52.6948 63.7422 52.846 63.8093 53.0139C63.8765 53.1735 63.9101 53.3583 63.9101 53.5682C63.9101 54.0217 63.7296 54.3871 63.3684 54.6642C63.0157 54.9413 62.5412 55.0799 61.9449 55.0799C61.3318 55.0799 60.7901 54.9791 60.3198 54.7776C59.8495 54.5676 59.3834 54.2527 58.9215 53.8328L58.3042 54.5634C58.8333 55.0421 59.3876 55.3991 59.9671 55.6342C60.555 55.861 61.2017 55.9743 61.9071 55.9743C62.3438 55.9743 62.747 55.9156 63.1165 55.798C63.486 55.6804 63.8009 55.5124 64.0613 55.2941C64.33 55.0757 64.54 54.8112 64.6912 54.5004C64.8423 54.1897 64.9179 53.8454 64.9179 53.4674C64.9179 52.7872 64.6828 52.2539 64.2125 51.8675C63.7506 51.4812 63.0283 51.1789 62.0457 50.9605C61.5586 50.8597 61.1597 50.7548 60.8489 50.6456C60.5382 50.528 60.2946 50.402 60.1183 50.2677C59.9419 50.1249 59.8201 49.9695 59.7529 49.8015C59.6857 49.6336 59.6521 49.4446 59.6521 49.2347Z" fill="black"/>
<path d="M77.4514 51.4266C77.4514 50.8135 77.3422 50.2341 77.1238 49.6882C76.9139 49.1339 76.6115 48.651 76.2168 48.2394C75.8221 47.8195 75.3476 47.4878 74.7933 47.2442C74.2474 47.0007 73.6385 46.8789 72.9666 46.8789C72.2948 46.8789 71.6817 47.0049 71.1274 47.2568C70.5731 47.5004 70.0986 47.8321 69.7039 48.252C69.3091 48.672 69.0026 49.1591 68.7842 49.7134C68.5659 50.2593 68.4567 50.8387 68.4567 51.4518C68.4567 52.0649 68.5617 52.6486 68.7716 53.2029C68.99 53.7488 69.2965 54.2317 69.6913 54.6516C70.086 55.0631 70.5563 55.3907 71.1022 55.6342C71.6565 55.8778 72.2696 55.9995 72.9414 55.9995C73.6133 55.9995 74.2264 55.8778 74.7807 55.6342C75.335 55.3823 75.8095 55.0463 76.2042 54.6264C76.5989 54.2065 76.9055 53.7236 77.1238 53.1777C77.3422 52.6234 77.4514 52.0397 77.4514 51.4266ZM76.4184 51.4518C76.4184 51.9557 76.3302 52.4302 76.1538 52.8753C75.9858 53.3121 75.7507 53.6942 75.4483 54.0217C75.146 54.3493 74.7807 54.6096 74.3524 54.8028C73.9324 54.9875 73.4705 55.0799 72.9666 55.0799C72.4627 55.0799 71.9966 54.9833 71.5683 54.7902C71.1484 54.597 70.7831 54.3367 70.4723 54.0091C70.1616 53.6816 69.918 53.2953 69.7417 52.8502C69.5737 52.405 69.4897 51.9305 69.4897 51.4266C69.4897 50.9227 69.5737 50.4524 69.7417 50.0157C69.918 49.5706 70.1574 49.1843 70.4597 48.8567C70.7621 48.5292 71.1232 48.273 71.5431 48.0883C71.9714 47.8951 72.4375 47.7985 72.9414 47.7985C73.4453 47.7985 73.9072 47.8951 74.3272 48.0883C74.7555 48.2814 75.125 48.5418 75.4358 48.8693C75.7465 49.1969 75.9858 49.5832 76.1538 50.0283C76.3302 50.4734 76.4184 50.9479 76.4184 51.4518Z" fill="black"/>
<path d="M87.9435 54.0973L82.388 47.0301H81.4557V55.8484H82.4258V48.6174L88.1199 55.8484H88.9135V47.0301H87.9435V54.0973Z" fill="black"/>
<path d="M106.744 51.4266C106.744 50.8051 106.63 50.2257 106.404 49.6882C106.177 49.1507 105.853 48.6846 105.434 48.2898C105.022 47.8951 104.526 47.5886 103.947 47.3702C103.376 47.1435 102.746 47.0301 102.057 47.0301H98.9962V55.8484H102.057C102.746 55.8484 103.376 55.735 103.947 55.5082C104.526 55.2815 105.022 54.9707 105.434 54.576C105.853 54.1813 106.177 53.7152 106.404 53.1777C106.63 52.6318 106.744 52.0481 106.744 51.4266ZM105.711 51.4518C105.711 51.9473 105.622 52.405 105.446 52.825C105.278 53.2449 105.035 53.6144 104.715 53.9335C104.405 54.2443 104.023 54.4878 103.569 54.6642C103.116 54.8406 102.612 54.9288 102.057 54.9288H99.9914V47.9497H102.057C102.612 47.9497 103.116 48.0421 103.569 48.2268C104.023 48.4032 104.405 48.651 104.715 48.9701C105.035 49.2808 105.278 49.6504 105.446 50.0787C105.622 50.507 105.711 50.9647 105.711 51.4518Z" fill="black"/>
<path d="M117.962 47.0301H116.966V52.1573C116.966 53.1231 116.727 53.8496 116.248 54.3367C115.77 54.8238 115.123 55.0673 114.308 55.0673C113.46 55.0673 112.797 54.8112 112.318 54.2989C111.848 53.7866 111.612 53.0517 111.612 52.0943V47.0301H110.617V52.1573C110.617 52.7788 110.705 53.3289 110.882 53.8076C111.058 54.2863 111.306 54.6894 111.625 55.0169C111.953 55.3361 112.339 55.5796 112.784 55.7476C113.238 55.9072 113.737 55.9869 114.283 55.9869C114.837 55.9869 115.337 55.9072 115.782 55.7476C116.236 55.5796 116.622 55.3319 116.941 55.0043C117.269 54.6768 117.521 54.2695 117.697 53.7824C117.873 53.2953 117.962 52.7284 117.962 52.0817V47.0301Z" fill="black"/>
<path d="M128.671 49.2347C128.671 49.0331 128.713 48.8441 128.797 48.6678C128.889 48.4914 129.015 48.3402 129.175 48.2142C129.343 48.0883 129.54 47.9875 129.767 47.9119C130.002 47.8363 130.263 47.7985 130.548 47.7985C131.002 47.7985 131.434 47.8741 131.846 48.0253C132.266 48.1765 132.681 48.42 133.093 48.7559L133.672 47.9875C133.219 47.6264 132.748 47.3576 132.261 47.1812C131.783 46.9965 131.22 46.9041 130.573 46.9041C130.153 46.9041 129.767 46.9671 129.414 47.0931C129.062 47.2106 128.755 47.3786 128.495 47.597C128.234 47.8069 128.033 48.0589 127.89 48.3528C127.747 48.6468 127.676 48.9701 127.676 49.3228C127.676 49.6924 127.735 50.0115 127.852 50.2802C127.97 50.549 128.15 50.7842 128.394 50.9857C128.637 51.1873 128.944 51.3594 129.313 51.5022C129.691 51.645 130.132 51.771 130.636 51.8801C131.098 51.9809 131.476 52.0859 131.77 52.1951C132.072 52.3043 132.308 52.426 132.475 52.5604C132.643 52.6948 132.761 52.846 132.828 53.0139C132.895 53.1735 132.929 53.3583 132.929 53.5682C132.929 54.0217 132.748 54.3871 132.387 54.6642C132.035 54.9413 131.56 55.0799 130.964 55.0799C130.351 55.0799 129.809 54.9791 129.339 54.7776C128.868 54.5676 128.402 54.2527 127.94 53.8328L127.323 54.5634C127.852 55.0421 128.406 55.3991 128.986 55.6342C129.574 55.861 130.221 55.9743 130.926 55.9743C131.363 55.9743 131.766 55.9156 132.135 55.798C132.505 55.6804 132.82 55.5124 133.08 55.2941C133.349 55.0757 133.559 54.8112 133.71 54.5004C133.861 54.1897 133.937 53.8454 133.937 53.4674C133.937 52.7872 133.702 52.2539 133.231 51.8675C132.769 51.4812 132.047 51.1789 131.065 50.9605C130.577 50.8597 130.179 50.7548 129.868 50.6456C129.557 50.528 129.313 50.402 129.137 50.2677C128.961 50.1249 128.839 49.9695 128.772 49.8015C128.705 49.6336 128.671 49.4446 128.671 49.2347Z" fill="black"/>
<path d="M146.47 51.4266C146.47 50.8135 146.361 50.2341 146.143 49.6882C145.933 49.1339 145.63 48.651 145.236 48.2394C144.841 47.8195 144.366 47.4878 143.812 47.2442C143.266 47.0007 142.657 46.8789 141.985 46.8789C141.314 46.8789 140.701 47.0049 140.146 47.2568C139.592 47.5004 139.117 47.8321 138.723 48.252C138.328 48.672 138.021 49.1591 137.803 49.7134C137.585 50.2593 137.476 50.8387 137.476 51.4518C137.476 52.0649 137.581 52.6486 137.79 53.2029C138.009 53.7488 138.315 54.2317 138.71 54.6516C139.105 55.0631 139.575 55.3907 140.121 55.6342C140.675 55.8778 141.288 55.9995 141.96 55.9995C142.632 55.9995 143.245 55.8778 143.8 55.6342C144.354 55.3823 144.828 55.0463 145.223 54.6264C145.618 54.2065 145.924 53.7236 146.143 53.1777C146.361 52.6234 146.47 52.0397 146.47 51.4266ZM145.437 51.4518C145.437 51.9557 145.349 52.4302 145.173 52.8753C145.005 53.3121 144.77 53.6942 144.467 54.0217C144.165 54.3493 143.8 54.6096 143.371 54.8028C142.951 54.9875 142.489 55.0799 141.985 55.0799C141.482 55.0799 141.015 54.9833 140.587 54.7902C140.167 54.597 139.802 54.3367 139.491 54.0091C139.18 53.6816 138.937 53.2953 138.761 52.8502C138.593 52.405 138.509 51.9305 138.509 51.4266C138.509 50.9227 138.593 50.4524 138.761 50.0157C138.937 49.5706 139.176 49.1843 139.479 48.8567C139.781 48.5292 140.142 48.273 140.562 48.0883C140.99 47.8951 141.456 47.7985 141.96 47.7985C142.464 47.7985 142.926 47.8951 143.346 48.0883C143.774 48.2814 144.144 48.5418 144.455 48.8693C144.765 49.1969 145.005 49.5832 145.173 50.0283C145.349 50.4734 145.437 50.9479 145.437 51.4518Z" fill="black"/>
<path d="M156.811 47.0301H150.475V55.8484H151.47V52.0061H156.244V51.0991H151.47V47.9497H156.811V47.0301Z" fill="black"/>
<path d="M163.986 47.9497H166.946V47.0301H160.017V47.9497H162.978V55.8484H163.986V47.9497Z" fill="black"/>
<path d="M183.005 49.8393C183.005 49.4026 182.925 49.0121 182.766 48.6678C182.614 48.315 182.392 48.0211 182.098 47.7859C181.812 47.5424 181.464 47.3576 181.052 47.2316C180.649 47.0973 180.2 47.0301 179.704 47.0301H176.404V55.8484H177.399V52.7368H179.541C180.011 52.7368 180.456 52.678 180.876 52.5604C181.296 52.4344 181.661 52.2497 181.972 52.0061C182.291 51.7626 182.543 51.4602 182.728 51.0991C182.913 50.738 183.005 50.318 183.005 49.8393ZM181.997 49.8771C181.997 50.1711 181.938 50.4398 181.821 50.6834C181.712 50.9185 181.548 51.1243 181.329 51.3007C181.12 51.4686 180.863 51.5988 180.561 51.6912C180.267 51.7836 179.94 51.8298 179.578 51.8298H177.399V47.9497H179.629C180.343 47.9497 180.914 48.1135 181.342 48.441C181.779 48.7601 181.997 49.2389 181.997 49.8771Z" fill="black"/>
<path d="M193.099 47.0301H186.724V55.8484H193.161V54.9413H187.719V51.8549H192.532V50.9479H187.719V47.9371H193.099V47.0301Z" fill="black"/>
<path d="M204.363 55.8484L201.655 52.2455C201.999 52.1867 202.318 52.0859 202.612 51.9431C202.906 51.8004 203.158 51.624 203.368 51.414C203.586 51.1957 203.754 50.9437 203.872 50.6582C203.989 50.3642 204.048 50.0325 204.048 49.663C204.048 49.2682 203.973 48.9113 203.821 48.5922C203.67 48.2646 203.456 47.9875 203.179 47.7607C202.902 47.5256 202.566 47.345 202.171 47.219C201.785 47.0931 201.348 47.0301 200.861 47.0301H197.069V55.8484H198.064V52.4218H200.584L203.141 55.8484H204.363ZM203.04 49.7008C203.04 49.9863 202.981 50.2425 202.864 50.4692C202.755 50.696 202.599 50.8891 202.398 51.0487C202.196 51.1999 201.957 51.3174 201.68 51.4014C201.403 51.4854 201.1 51.5274 200.773 51.5274H198.064V47.9497H200.785C201.499 47.9497 202.053 48.1051 202.448 48.4158C202.843 48.7182 203.04 49.1465 203.04 49.7008Z" fill="black"/>
<path d="M214.415 47.0301H208.078V55.8484H209.073V52.0061H213.848V51.0991H209.073V47.9497H214.415V47.0301Z" fill="black"/>
<path d="M225.457 47.0301H224.462V52.1573C224.462 53.1231 224.222 53.8496 223.743 54.3367C223.265 54.8238 222.618 55.0673 221.803 55.0673C220.955 55.0673 220.292 54.8112 219.813 54.2989C219.343 53.7866 219.108 53.0517 219.108 52.0943V47.0301H218.112V52.1573C218.112 52.7788 218.201 53.3289 218.377 53.8076C218.553 54.2863 218.801 54.6894 219.12 55.0169C219.448 55.3361 219.834 55.5796 220.279 55.7476C220.733 55.9072 221.232 55.9869 221.778 55.9869C222.333 55.9869 222.832 55.9072 223.277 55.7476C223.731 55.5796 224.117 55.3319 224.436 55.0043C224.764 54.6768 225.016 54.2695 225.192 53.7824C225.369 53.2953 225.457 52.7284 225.457 52.0817V47.0301Z" fill="black"/>
<path d="M237.161 48.7056V55.8484H238.156V47.0301H237.148L233.936 51.8423L230.723 47.0301H229.715V55.8484H230.685V48.7182L233.898 53.4296H233.948L237.161 48.7056Z" fill="black"/>
<path d="M248.932 47.0301H242.558V55.8484H248.995V54.9413H243.553V51.8549H248.365V50.9479H243.553V47.9371H248.932V47.0301Z" fill="black"/>
<path d="M17.127 19.1019C16.5166 20.8612 15.8703 22.0102 15.1881 22.7283C14.3623 23.6978 13.1056 23.9132 11.3821 23.9132C10.1254 23.9132 9.08415 23.8414 8.43785 23.5542C7.71974 23.231 7.57611 22.5488 7.57611 20.7894V6.67847C7.57611 3.59058 7.89926 3.41105 10.664 3.15971V2.01072H0.287246V3.15971C3.1238 3.41105 3.41105 3.62648 3.41105 6.67847V20.6817C3.41105 23.7337 3.08789 23.9491 0 24.2005V25.3495H17.0193C17.3425 24.3441 18.0606 20.8253 18.3478 19.425L17.127 19.1019Z" fill="black"/>
<path d="M33.9708 9.12006C30.1648 9.12006 25.6048 11.9925 25.6048 17.8092C25.6048 21.7589 28.4413 25.7803 33.8272 25.7803C37.8127 25.7803 41.9778 22.9438 41.9778 17.1629C41.9778 12.8183 38.7463 9.12006 33.9708 9.12006ZM33.4322 10.4486C36.0533 10.4486 37.4896 13.4647 37.4896 18.1324C37.4896 23.3028 35.9097 24.4518 34.2221 24.4518C31.7087 24.4518 30.093 21.0049 30.093 16.5525C30.093 12.4593 31.7087 10.4486 33.4322 10.4486Z" fill="black"/>
<path d="M67.1629 23.4105L66.3012 23.3387C64.9726 23.231 64.7213 22.9079 64.7213 21.0767V9.29959C64.0032 9.44321 62.926 9.58683 61.777 9.69455C60.5921 9.80227 59.3354 9.90998 58.2942 9.94589V10.9153L59.4791 11.1667C60.5203 11.3462 60.7717 11.5976 60.7717 13.3569V21.9384C59.8022 22.872 58.7969 23.1951 57.7197 23.1951C56.3194 23.1951 54.9908 22.3693 54.9908 19.7123V14.6495C54.9908 12.4593 54.9908 10.664 55.0986 9.29959C54.2727 9.44321 53.0878 9.58683 51.9748 9.69455C50.8617 9.80227 49.8204 9.90998 48.9946 9.94589V10.9153L49.8922 11.1667C50.7899 11.3821 51.0412 11.5616 51.0412 13.321V20.574C51.0412 24.0209 52.8724 25.7803 55.6372 25.7803C56.7143 25.7803 57.612 25.4213 58.6532 24.775C59.5509 24.2723 60.0895 23.7696 60.7717 23.231V25.529L61.0589 25.7803C61.9925 25.5649 63.0337 25.2776 64.1109 25.0622C65.1881 24.8109 66.1934 24.5954 67.1629 24.4877V23.4105Z" fill="black"/>
<path d="M77.9554 6.53484C79.248 6.53484 80.2534 5.49358 80.2534 4.27278C80.2534 2.98018 79.248 1.97482 77.9913 1.97482C76.7346 1.97482 75.6934 2.98018 75.6934 4.27278C75.6934 5.49358 76.7346 6.53484 77.9554 6.53484ZM82.5873 25.3495V24.2723C80.3611 24.0209 80.1816 23.8055 80.1816 21.3639V9.08415C78.3504 9.69455 76.196 10.1613 74.1494 10.4127V11.418C76.0524 11.7053 76.2319 11.8489 76.2319 14.1469V21.3639C76.2319 23.8773 76.0165 24.0568 73.8622 24.2723V25.3495H82.5873Z" fill="black"/>
<path d="M100.139 13.7519C100.068 12.962 99.6366 10.5563 99.2776 9.76636C98.4877 9.44321 97.5182 9.12006 95.9383 9.12006C92.3119 9.15596 90.0857 11.3462 90.0857 14.0391C90.0857 17.0193 92.8145 18.3478 94.6457 19.2096C96.7283 20.2149 97.4105 21.0767 97.4105 22.2975C97.4105 23.5542 96.441 24.4518 95.2202 24.4518C93.0659 24.4518 91.4142 22.1179 90.6602 19.82L89.6548 19.9277C89.6548 21.5075 89.978 24.0209 90.2293 24.5595C90.9115 25.0981 92.7427 25.7803 94.6098 25.7803C97.59 25.7803 100.857 24.0568 100.857 20.6099C100.857 17.917 98.9544 16.6603 96.1179 15.4395C94.3585 14.6854 93.3172 13.8237 93.3172 12.567C93.3172 11.3103 94.2149 10.4127 95.3279 10.4127C97.0514 10.4127 98.2363 11.8848 99.0981 14.0391L100.139 13.7519Z" fill="black"/>
<path d="M150.982 25.3495V24.2005C148.074 23.9132 147.93 23.6619 147.823 20.179L147.5 6.8939C147.428 3.66239 147.571 3.44695 150.552 3.15971V2.01072H143.73L136.225 18.5274L128.865 2.01072H122.007V3.15971C125.13 3.44695 125.382 3.84191 125.059 8.1506L124.52 15.3677C124.269 19.1378 124.017 20.8971 123.802 22.082C123.551 23.4105 122.868 23.985 120.822 24.1646V25.3495H129.367V24.1646C126.962 23.9491 126.208 23.6619 126.1 22.0102C125.992 20.7535 125.992 19.1378 126.136 16.1576L126.602 6.46303H126.746L134.322 25.0981H135.22L143.442 6.06807H143.622L143.694 20.179C143.73 23.6619 143.55 23.9132 140.785 24.2005V25.3495H150.982Z" fill="black"/>
<path d="M173.086 23.8055L172.727 22.7283C172.368 22.9079 171.902 23.0515 171.471 23.0515C170.86 23.0515 170.286 22.5847 170.286 20.933V14.7573C170.286 12.7824 169.963 11.2744 168.491 10.1254C167.593 9.44321 166.516 9.12006 165.187 9.12006C163.141 9.51502 160.663 10.8076 159.442 11.6694C158.652 12.2439 158.221 12.6747 158.221 13.2851C158.221 14.1828 159.37 14.9727 160.232 14.9727C160.878 14.9727 161.345 14.7214 161.561 13.8955C161.848 12.7824 162.171 11.9566 162.602 11.4539C162.961 11.0231 163.392 10.8076 163.966 10.8076C165.474 10.8076 166.444 12.1361 166.444 14.5059V15.4395C165.618 16.1217 162.889 17.0193 160.771 17.7733C158.868 18.4915 157.97 19.425 157.97 21.2562C157.97 23.4824 159.765 25.7803 162.638 25.7803C163.464 25.7803 165.187 24.5595 166.588 23.626C166.731 24.1287 166.982 24.5954 167.485 25.0622C167.916 25.4572 168.634 25.7803 169.496 25.7803L173.086 23.8055ZM166.444 22.4411C165.833 22.9438 165.115 23.2669 164.433 23.2669C163.5 23.2669 162.135 22.477 162.135 20.5381C162.135 19.2814 162.781 18.5992 164.002 18.0247C164.756 17.6297 165.762 17.127 166.444 16.768V22.4411Z" fill="black"/>
<path d="M185.541 12.9261V9.04825C183.495 9.76636 181.556 10.1972 179.545 10.4486V11.3821C181.376 11.7412 181.592 11.8848 181.592 13.9314V21.6153C181.592 23.8773 181.269 24.0568 179.222 24.2723V25.3495H188.486V24.2723C185.721 24.0568 185.541 23.8773 185.541 21.6153V14.9727C186.223 13.321 187.085 12.6747 187.875 12.6747C188.45 12.6747 188.881 12.8902 189.491 13.3928C189.706 13.6083 190.065 13.716 190.532 13.5006C191.394 13.1774 192.076 12.2798 192.076 11.2026C192.076 10.1254 191.143 9.12006 189.778 9.12006C188.306 9.12006 186.834 10.8076 185.613 12.9261H185.541Z" fill="black"/>
<path d="M206.664 25.3495V24.2723C204.438 24.0568 204.187 23.8773 204.187 21.4716V0C202.463 0.50268 199.95 1.04127 197.939 1.2567V2.22616C200.057 2.4775 200.237 2.54931 200.237 4.84727V21.4716C200.237 23.8055 199.986 23.985 197.795 24.2723V25.3495H206.664Z" fill="black"/>
<path d="M226.453 21.1485C225.196 22.2975 223.832 22.8001 222.432 22.8001C219.882 22.8001 217.513 20.8253 217.405 16.5885C221.211 16.4448 225.627 16.0858 226.238 16.014C226.992 15.8703 227.207 15.4754 227.207 14.7573C227.207 11.8848 224.73 9.12006 221.534 9.12006H221.498C219.631 9.12006 217.656 10.0895 216.112 11.7053C214.604 13.2133 213.563 15.4395 213.563 18.0965C213.563 22.2257 216.184 25.7803 220.816 25.7803C222.18 25.7803 224.873 25.0622 227.064 22.0102L226.453 21.1485ZM220.744 10.5204C222.36 10.5204 223.293 12.3157 223.293 14.1469C223.293 14.7214 223.078 14.865 222.504 14.865C220.816 14.9368 219.236 14.9727 217.584 14.9727C217.908 12.1361 219.272 10.5204 220.744 10.5204Z" fill="black"/>
<path d="M250.833 9.55093H244.37V10.5922C246.237 10.9153 246.524 11.3462 246.129 12.6029C245.447 14.7214 244.119 18.5633 243.221 20.7535L240.313 12.3875C239.882 11.1667 240.133 10.9153 241.713 10.5922V9.55093H233.419V10.5922C235.214 10.8794 235.609 11.3103 236.291 12.9979C237.117 14.9368 238.948 19.7841 240.672 24.5595C240.887 25.1699 240.959 25.6726 240.779 26.2471C240.636 26.678 240.42 27.2166 239.918 28.0783C239.199 29.3709 238.41 30.1608 237.081 30.8789C236.399 31.3457 236.147 31.6689 236.147 32.2434C236.147 33.3564 237.476 34.3259 238.481 34.3259C239.056 34.3259 239.523 34.1464 239.738 33.3923C240.348 31.3816 241.067 29.1914 243.472 23.4464C245.734 18.0965 246.883 15.1163 247.781 13.2133C248.714 11.2385 249.038 10.9153 250.833 10.5922V9.55093Z" fill="black"/>
</svg>
